<svg width="60" height="60" viewBox="0 0 60 60" fill="none" xmlns="http://www.w3.org/2000/svg">
<rect width="60" height="60" fill="white"/>
<path fill-rule="evenodd" clip-rule="evenodd" d="M35.6171 17.8831V15H18.5171V17.8831H22.7989V18.8688C20.5642 18.8503 18.2145 18.8304 18.2145 18.8304C17.8167 18.8276 17.4389 18.9938 17.1718 19.2878C17.1718 19.2878 15.5409 21.0901 15.0962 21.5801C14.5379 21.715 13.2224 22.0303 13.2224 22.0303C12.9667 22.0928 12.7338 22.2249 12.5505 22.4138L10.8813 24.1308C10.6284 24.3908 10.4877 24.7387 10.4877 25.1009V30.5277H8.9208V23.1083H6V32.2434H6.868V40.2849H8.9208V34.0301H10.4877V38.0153C10.4877 38.3959 10.644 38.7624 10.921 39.0237L12.6585 40.6712C12.917 40.9169 13.2594 41.0532 13.616 41.0532H18.2103C18.8779 41.5759 24.157 45.7046 24.157 45.7046C24.4027 45.8963 24.7039 46 25.015 46H41.7642C42.1904 46 42.591 45.8054 42.8552 45.4731C42.8552 45.4731 44.0443 43.9704 44.9251 42.8555C45.5189 43.3896 46.1155 43.9264 46.1155 43.9264C46.3713 44.1565 46.7023 44.2829 47.0461 44.2829H50.1061C50.6388 44.2829 51.1247 43.979 51.3576 43.5003L53.8594 38.3476C53.9517 38.1602 54 37.95 54 37.7398V30.2507C54 29.9667 53.9119 29.6883 53.75 29.4554L50.447 24.7174C50.1856 24.3453 49.7594 24.1223 49.3048 24.1223H43.1464C42.7529 23.9633 40.497 23.0458 39.9046 22.8043C39.5182 22.2263 37.7097 19.5193 37.7097 19.5193C37.4526 19.1315 37.0179 18.9 36.5533 18.9H31.3467V17.8831H35.6171ZM16.6062 24.1884C16.6062 24.1884 17.9861 22.6379 18.5552 22C19.5767 22.0096 25.8576 22.0613 26.4572 22.0662L35.5707 22.0665C36.1411 22.9344 37.5922 25.1445 37.5922 25.1445C37.7472 25.3803 37.9677 25.5625 38.2266 25.6696L42.1202 27.2809C42.2881 27.3488 42.4659 27.385 42.6452 27.385H48.3583L48.78 27.9998L46.8306 28L45.6115 31.3748V28H43V37H45.6115V32.5582L47.2775 37H50L48.1121 31.9034L49.239 28.669C49.9357 29.6847 50.7567 30.882 51 31.2383V38.0943L50.5945 38.9434L50.5892 38.9546L50.5714 38.9918C50.0956 39.988 49.3719 41.5033 49.0155 42.2513H47.3582C46.8148 41.7552 45.4605 40.5156 45.4605 40.5156C45.1731 40.2523 44.7947 40.1222 44.4106 40.1569C44.0279 40.1901 43.6737 40.3825 43.4347 40.6892C43.4347 40.6892 41.4801 43.203 40.8598 44H25.2427C24.5727 43.4677 19.2864 39.263 19.2864 39.263C19.0417 39.0677 18.7401 38.9621 18.4286 38.9621H13.9019C13.6964 38.7634 13.5226 38.5957 13.3348 38.4145L13.3345 38.4142L13 38.0914V26.1223C13.3599 25.7462 13.7184 25.3716 13.9958 25.0809C14.5364 24.9478 15.8992 24.6151 15.8992 24.6151C16.1709 24.5486 16.4185 24.3996 16.6062 24.1884ZM23.3939 28V31.0888H24.5922V28H27V37H24.5922V32.8092H23.3939V37H21V34.3963C21 35.6031 20.6725 37 18.0345 37C15.8001 37 15 35.8717 15 34.3963V30.4136C15 28.9147 15.8567 28 18.0345 28C20.3243 28 21 29.1379 21 30.4136V28H23.3939ZM33 29.7655V28H28V37H33V35.2668H30.3935V32.9011H32.8136V31.1916H30.3935V29.7655H33ZM41 30.4136V31.4744L38.5884 31.4868V30.4136C38.5884 30.0527 38.4446 29.6352 38.0353 29.6352C37.449 29.6352 37.3757 29.9852 37.3757 30.4136L37.3759 34.4886C37.3786 34.9174 37.4196 35.311 38.0353 35.311C38.5884 35.311 38.5884 34.8123 38.5884 34.3963V33.0201H41L40.9991 34.5065C40.9783 35.6865 40.5977 37 38.0353 37C35.802 37 35 35.8717 35 34.3963V30.4136C35 28.9147 35.856 28 38.0353 28C40.3266 28 41 29.1379 41 30.4136ZM17.3726 30.4136C17.3726 29.9852 17.4431 29.6352 18.0345 29.6352C18.4408 29.6352 18.5818 30.0527 18.5818 30.4136V31.4868L21 31.4744V33.0201H18.5818V34.3963C18.5818 34.8123 18.5818 35.311 18.0345 35.311C17.4168 35.311 17.3756 34.9174 17.3728 34.4886L17.3726 30.4136Z" fill="#F26100"/>
</svg>
