<svg width="60" height="60" viewBox="0 0 60 60" fill="none" xmlns="http://www.w3.org/2000/svg">
<rect width="60" height="60" fill="white"/>
<path fill-rule="evenodd" clip-rule="evenodd" d="M38.9653 8C40.8808 8 42.4335 9.55277 42.4335 11.4682V48.5318C42.4335 50.4472 40.8808 52 38.9653 52H20.4682C18.5528 52 17 50.4472 17 48.5318V11.4682C17 9.55277 18.5528 8 20.4682 8L38.9653 8ZM29.7168 47.6763C29.0144 47.6763 28.4451 48.2456 28.4451 48.948C28.4451 49.6503 29.0144 50.2197 29.7168 50.2197C30.4191 50.2197 30.9884 49.6503 30.9884 48.948C30.9884 48.2456 30.4191 47.6763 29.7168 47.6763ZM39.8902 13.9769H19.5434V46.0231H39.8902V13.9769ZM33.1503 10.289H26.2832C26.0023 10.289 25.7746 10.5168 25.7746 10.7977C25.7746 11.0701 25.9887 11.2925 26.2579 11.3057L26.2832 11.3064H33.1503C33.4312 11.3064 33.659 11.0786 33.659 10.7977C33.659 10.5168 33.4312 10.289 33.1503 10.289Z" fill="#F26100"/>
<path d="M35.1231 32.2806H32.0876L37.3537 28.3728L38.6185 26.1595H32.1681L31.0872 28.0616H34.2607L28.8106 32.0385L27.5803 34.1711H34.0422L35.1231 32.2806Z" fill="#F26100"/>
<path d="M28.4575 25.8619C26.907 25.5905 25.3455 26.2799 24.5093 27.6051L20.8151 33.9931H23.2279L24.2553 32.2155H25.4098L24.3823 33.9931H26.7836L30.247 28.1212C30.7549 27.0891 30.2123 26.1143 28.4575 25.8619V25.8619ZM27.5109 28.5685L26.5527 30.2429H25.3982L26.4488 28.4079C26.613 28.1125 26.9436 27.9483 27.28 27.9951C27.6148 28.0639 27.7302 28.2474 27.5109 28.6029V28.5685Z" fill="#F26100"/>
</svg>
