<svg width="60" height="60" viewBox="0 0 60 60" fill="none" xmlns="http://www.w3.org/2000/svg">
<path fill-rule="evenodd" clip-rule="evenodd" d="M0 0H60V60H0V0Z" fill="white"/>
<path fill-rule="evenodd" clip-rule="evenodd" d="M7.6001 31.3C9.5001 28.1 11.4001 25 13.3001 21.8C15.2001 25 17.1001 28.1 19.0001 31.3H15.3001C15.4001 31.9 15.4001 32.4 15.5001 33C16.5001 38.4 19.5001 42.4 24.4001 44.9C31.0001 48.2 39.0001 46.7 44.0001 41.3C47.4001 37.7 48.9001 33.3 48.4001 28.4C47.7001 20.9 41.7001 14.6 34.2001 13.6C33.5001 13.5 32.7001 13.5 31.9001 13.4C30.5001 13.3 29.9001 12.5 30.0001 11.1C30.1001 9.9 31.0001 9.2 32.2001 9.2C37.2001 9.4 41.6001 11.1 45.4001 14.4C49.2001 17.7 51.5001 21.9 52.2001 26.9C53.1001 32.8 51.6001 38.2 47.8001 42.8C44.4001 47 40.0001 49.6 34.7001 50.4C28.6001 51.3 23.1001 49.7 18.4001 45.8C14.5001 42.6 12.1001 38.4 11.2001 33.4C11.1001 32.9 11.1001 32.3 11.0001 31.7C11.0001 31.3 10.8001 31.1 10.4001 31.1C9.6001 31.3 8.7001 31.3 7.6001 31.3Z" fill="#F26100"/>
<path fill-rule="evenodd" clip-rule="evenodd" d="M33.7999 24.8C33.7999 26.8 33.7999 28.8 33.7999 30.8C33.7999 31.5 33.5999 32 33.0999 32.5C30.8999 34.6 28.6999 36.7 26.4999 38.8C25.3999 39.8 23.8999 39.4 23.3999 38.1C23.0999 37.3 23.3999 36.7 23.9999 36.2C25.8999 34.4 27.6999 32.6 29.5999 30.9C29.8999 30.6 29.9999 30.3 29.9999 29.9C29.9999 26.3 29.9999 22.7 29.9999 19.1C29.9999 18.5 30.0999 17.9 30.3999 17.5C30.6999 16.8 31.6999 16.6 32.3999 16.8C33.1999 17 33.7999 17.8 33.7999 18.6C33.7999 20.6 33.7999 22.7 33.7999 24.8Z" fill="#F26100"/>
<path fill-rule="evenodd" clip-rule="evenodd" d="M29.9003 42C29.9003 41.7 29.9003 41.5 29.9003 41.2C29.9003 40.7 30.5003 40.3 31.1003 40.2C31.8003 40.2 32.4003 40.5 32.4003 41C32.5003 41.6 32.5003 42.3 32.4003 42.9C32.4003 43.3 31.7003 43.7 31.1003 43.7C30.5003 43.7 29.9003 43.3 29.8003 42.8C29.8003 42.6 29.9003 42.3 29.9003 42Z" fill="#F26100"/>
<path fill-rule="evenodd" clip-rule="evenodd" d="M44.6999 30.2C44.3999 30.2 44.1999 30.2 43.8999 30.2C43.3999 30.2 42.9999 29.7 42.8999 29.1C42.8999 28.4 43.1999 27.7 43.6999 27.7C44.2999 27.6 44.8999 27.6 45.4999 27.7C45.9999 27.7 46.3999 28.4 46.2999 29.1C46.2999 29.8 45.7999 30.3 45.2999 30.3C45.1999 30.2 44.9999 30.2 44.6999 30.2Z" fill="#F26100"/>
<path fill-rule="evenodd" clip-rule="evenodd" d="M41.7002 19.1C42.1002 19.5 42.2002 20.2 41.8002 20.7C41.8002 20.7 41.8002 20.8 41.7002 20.8C41.3002 21.3 40.8002 21.7 40.4002 22.1C39.8002 22.6 39.0002 22.4 38.6002 21.8C38.4002 21.4 38.5002 21 38.7002 20.7C39.2002 20.1 39.7002 19.6 40.3002 19.1C40.6002 18.9 41.1002 18.9 41.4002 19C41.6002 19 41.6002 19 41.7002 19.1Z" fill="#F26100"/>
<path fill-rule="evenodd" clip-rule="evenodd" d="M39.0001 37C39.4001 36.7 39.9001 36.6 40.3001 36.9C40.3001 36.9 40.3001 36.9 40.4001 36.9C40.9001 37.3 41.3001 37.8 41.7001 38.3C42.2001 38.8 42.2001 39.3 41.7001 39.8C41.2001 40.3 40.7001 40.3 40.2001 39.9C39.7001 39.4 39.3001 39 38.8001 38.5C38.5001 38.2 38.4001 37.7 38.6001 37.3C38.8001 37.2 38.9001 37.1 39.0001 37Z" fill="#F26100"/>
</svg>
